<svg width="14" height="14" viewBox="0 0 14 14" fill="none" xmlns="http://www.w3.org/2000/svg">
<g id="calendar-minus-01">
<path id="Icon" d="M5.25 8.75033H8.75M12.25 4.66699H1.75M9.33333 1.16699V2.91699M4.66667 1.16699V2.91699M4.55 12.8337H9.45C10.4301 12.8337 10.9201 12.8337 11.2945 12.6429C11.6238 12.4751 11.8915 12.2074 12.0593 11.8781C12.25 11.5038 12.25 11.0138 12.25 10.0337V5.13366C12.25 4.15357 12.25 3.66352 12.0593 3.28918C11.8915 2.95989 11.6238 2.69218 11.2945 2.5244C10.9201 2.33366 10.4301 2.33366 9.45 2.33366H4.55C3.56991 2.33366 3.07986 2.33366 2.70552 2.5244C2.37623 2.69218 2.10852 2.95989 1.94074 3.28918C1.75 3.66352 1.75 4.15357 1.75 5.13366V10.0337C1.75 11.0138 1.75 11.5038 1.94074 11.8781C2.10852 12.2074 2.37623 12.4751 2.70552 12.6429C3.07986 12.8337 3.56991 12.8337 4.55 12.8337Z" stroke="#C6C6D0" stroke-width="1.16667" stroke-linecap="round" stroke-linejoin="round"/>
</g>
</svg>
