<svg width="28" height="28" viewBox="0 0 28 28" fill="none" xmlns="http://www.w3.org/2000/svg">
<path fill-rule="evenodd" clip-rule="evenodd" d="M13.6322 0.0344085C13.8752 -0.0114695 14.1248 -0.0114695 14.3678 0.0344085C14.6565 0.0888908 14.9135 0.221089 15.0299 0.280962C15.0418 0.287105 15.0523 0.292486 15.0612 0.296944L27.2537 6.42938C27.7111 6.65945 27.9997 7.12772 27.9997 7.63972C27.9997 8.15173 27.7111 8.62 27.2537 8.85006L15.0612 14.9825C15.0523 14.987 15.0418 14.9923 15.0299 14.9985C14.9135 15.0584 14.6565 15.1906 14.3678 15.245C14.1248 15.2909 13.8752 15.2909 13.6322 15.245C13.3435 15.1906 13.0865 15.0584 12.9701 14.9985C12.9582 14.9923 12.9477 14.987 12.9388 14.9825L0.746342 8.85006C0.288934 8.62 0.000294284 8.15173 0.000294284 7.63972C0.000294284 7.12772 0.288934 6.65945 0.746342 6.42938L12.9388 0.296944C12.9477 0.292486 12.9582 0.287105 12.9701 0.280963C13.0865 0.22109 13.3435 0.088891 13.6322 0.0344085ZM14 2.79627L4.37026 7.63972L14 12.4832L23.6297 7.63972L14 2.79627ZM0.144766 13.3909C0.480976 12.7225 1.29542 12.4532 1.96387 12.7894L14 18.8432L26.0361 12.7894C26.7046 12.4532 27.519 12.7225 27.8552 13.3909C28.1914 14.0594 27.9221 14.8738 27.2537 15.21L15.0612 21.3425C15.0523 21.3469 15.0418 21.3523 15.0299 21.3585C14.9135 21.4183 14.6565 21.5505 14.3678 21.605C14.1248 21.6509 13.8752 21.6509 13.6322 21.605C13.3435 21.5505 13.0865 21.4183 12.9701 21.3585C12.9582 21.3523 12.9477 21.3469 12.9388 21.3425L0.746342 15.21C0.0778909 14.8738 -0.191444 14.0594 0.144766 13.3909ZM0.144766 19.7509C0.480976 19.0825 1.29542 18.8131 1.96387 19.1493L14 25.2031L26.0361 19.1493C26.7046 18.8131 27.519 19.0825 27.8552 19.7509C28.1914 20.4194 27.9221 21.2338 27.2537 21.57L15.0612 27.7025C15.0523 27.7069 15.0418 27.7123 15.0299 27.7185C14.9135 27.7783 14.6565 27.9105 14.3678 27.965C14.1248 28.0109 13.8752 28.0109 13.6322 27.965C13.3435 27.9105 13.0865 27.7783 12.9701 27.7184C12.9582 27.7123 12.9477 27.7069 12.9388 27.7025L0.746342 21.57C0.0778908 21.2338 -0.191444 20.4194 0.144766 19.7509Z" fill="white"/>
</svg>
