<svg width="28" height="28" viewBox="0 0 28 28" fill="none" xmlns="http://www.w3.org/2000/svg">
<path fill-rule="evenodd" clip-rule="evenodd" d="M18.5952 3.68711C16.3713 2.6962 13.8866 2.45072 11.5118 2.98727C9.13702 3.52383 6.99927 4.81368 5.41741 6.66445C3.83556 8.51522 2.89435 10.8277 2.73415 13.2571C2.57396 15.6865 3.20337 18.1026 4.5285 20.1451C5.85364 22.1875 7.80351 23.7469 10.0873 24.5907C12.3711 25.4344 14.8665 25.5173 17.2012 24.827C19.536 24.1367 21.585 22.7101 23.0428 20.7601C24.5006 18.8101 25.2889 16.4411 25.2903 14.0065V12.8439C25.2903 12.0956 25.8969 11.489 26.6452 11.489C27.3934 11.489 28 12.0956 28 12.8439V14.0072C27.9983 17.0262 27.0207 19.9646 25.2131 22.3826C23.4054 24.8006 20.8646 26.5695 17.9695 27.4255C15.0744 28.2815 11.9802 28.1787 9.14826 27.1324C6.31635 26.0862 3.89852 24.1525 2.25534 21.6199C0.612173 19.0873 -0.168292 16.0913 0.0303475 13.0789C0.228987 10.0664 1.39609 7.19887 3.35759 4.90391C5.31909 2.60896 7.9699 1.00955 10.9147 0.344218C13.8594 -0.321113 16.9404 -0.016715 19.698 1.21201C20.3815 1.51655 20.6887 2.3175 20.3841 3.00098C20.0796 3.68446 19.2786 3.99165 18.5952 3.68711ZM27.6027 2.92538C28.1321 3.45421 28.1325 4.31205 27.6036 4.84141L14.9585 17.4992C14.7045 17.7535 14.3598 17.8964 14.0003 17.8965C13.6409 17.8966 13.2961 17.7539 13.042 17.4997L9.24843 13.7061C8.71934 13.177 8.71934 12.3192 9.24843 11.7901C9.77753 11.261 10.6354 11.261 11.1645 11.7901L13.9995 14.6252L25.6867 2.92633C26.2155 2.39697 27.0733 2.39654 27.6027 2.92538Z" fill="white"/>
</svg>
