<svg width="28" height="28" viewBox="0 0 28 28" fill="none" xmlns="http://www.w3.org/2000/svg">
<path fill-rule="evenodd" clip-rule="evenodd" d="M14.4769 1.21011C14.5098 1.91082 13.9746 2.50576 13.2817 2.53895C11.7991 2.60996 10.341 2.97511 8.99699 3.61198C8.36881 3.90965 7.62093 3.63602 7.32656 3.00081C7.03219 2.3656 7.30279 1.60935 7.93097 1.31168C9.57233 0.533906 11.3522 0.0881674 13.1628 0.0014486C13.8558 -0.0317403 14.4441 0.509394 14.4769 1.21011ZM16.8875 1.577C17.1237 0.917389 17.8439 0.57623 18.4962 0.815C19.3327 1.12119 20.1512 1.51362 20.9401 1.99463C21.5342 2.35687 21.7253 3.13751 21.3671 3.73825C21.0089 4.33898 20.2369 4.53232 19.6428 4.17008C18.9949 3.775 18.3245 3.45383 17.6411 3.20367C16.9888 2.9649 16.6514 2.23661 16.8875 1.577ZM5.36393 4.4629C5.8772 4.93484 5.91494 5.73816 5.44823 6.25718C4.95925 6.80095 4.51462 7.40134 4.12392 8.05653C3.73322 8.71172 3.4156 9.38955 3.16821 10.0806C2.93208 10.7402 2.21186 11.0814 1.55955 10.8426C0.907235 10.6039 0.569852 9.87558 0.80598 9.21597C1.10879 8.3701 1.49687 7.54244 1.97255 6.74474C2.44823 5.94705 2.99101 5.21371 3.58952 4.54814C4.05623 4.02913 4.85066 3.99097 5.36393 4.4629ZM1.19671 13.2802C1.88967 13.247 2.47803 13.7881 2.51085 14.4889C2.58107 15.9881 2.94218 17.4624 3.572 18.8215C3.86637 19.4567 3.59577 20.2129 2.96759 20.5106C2.33941 20.8083 1.59154 20.5347 1.29716 19.8994C0.527996 18.2397 0.0871915 16.4399 0.00143256 14.609C-0.0313889 13.9083 0.503756 13.3134 1.19671 13.2802ZM23.7473 19.5512C23.6468 19.6378 23.5582 19.742 23.4862 19.8626C23.0955 20.5178 22.6509 21.1182 22.1619 21.662C22.0688 21.7655 21.9958 21.8803 21.9426 22.0016C21.0838 22.8904 20.0886 23.6312 18.9968 24.1958C18.8672 24.2115 18.7378 24.2481 18.6132 24.3072C17.2692 24.9441 15.8111 25.3092 14.3285 25.3802C14.2015 25.3863 14.0798 25.4113 13.9659 25.4523C12.7136 25.4668 11.4611 25.2715 10.2606 24.868C10.1725 24.8059 10.0749 24.7543 9.96906 24.7155C9.28563 24.4654 8.6153 24.1442 7.96736 23.7491C7.31942 23.354 6.72568 22.9044 6.18792 22.41C5.67465 21.938 4.88022 21.9762 4.41351 22.4952C3.94679 23.0142 3.98453 23.8175 4.4978 24.2895C5.156 24.8947 5.88123 25.4435 6.67009 25.9245C7.32865 26.3261 8.00786 26.6659 8.70097 26.9454C8.79969 27.0225 8.9115 27.0859 9.03468 27.1319C11.8369 28.1788 14.8987 28.2816 17.7635 27.4251C20.6282 26.5686 23.1424 24.7987 24.9311 22.3792C26.7198 19.9598 27.6871 17.0205 27.6888 13.9997V12.8274C27.6888 12.1241 27.125 11.5539 26.4294 11.5539C25.7339 11.5539 25.17 12.1241 25.17 12.8274V13.9983C25.1689 15.9497 24.6753 17.8595 23.7473 19.5512ZM27.6321 2.59516C28.1226 3.09118 28.1226 3.89541 27.6321 4.39145L26.2321 5.80719C25.7416 6.30323 24.9463 6.30325 24.4557 5.80723C23.9651 5.3112 23.9651 4.50697 24.4557 4.01093L25.8557 2.5952C26.3462 2.09915 27.1415 2.09913 27.6321 2.59516ZM23.4321 6.84235C23.9226 7.33838 23.9227 8.1426 23.4321 8.63865L22.7473 9.33115C22.7352 9.34446 22.7228 9.35758 22.7101 9.37048L14.7265 17.4514C14.4904 17.6905 14.17 17.8248 13.8359 17.8249C13.5018 17.825 13.1813 17.6908 12.945 17.4519L9.16689 13.6314C9.08516 13.5488 9.01701 13.4576 8.96245 13.3607C8.67777 12.8773 8.73767 12.2427 9.14564 11.8221C9.6314 11.3213 10.4267 11.3135 10.922 11.8047L10.9337 11.8163C10.9373 11.8198 10.9409 11.8233 10.9444 11.8269L11.8794 12.7542C11.926 12.8004 11.9682 12.8493 12.0061 12.9005L13.5558 14.4676C13.6406 14.5185 13.7208 14.5805 13.7943 14.6534L13.8631 14.7216L20.9281 7.57041C20.9562 7.54198 20.9853 7.51516 21.0153 7.48998L21.6557 6.84239C22.1462 6.34635 22.9415 6.34633 23.4321 6.84235Z" fill="white"/>
</svg>
