<svg xmlns="http://www.w3.org/2000/svg" width="16" height="16" viewBox="0 0 16 16" fill="none">
  <path fill-rule="evenodd" clip-rule="evenodd" d="M4 0C1.79086 0 0 1.79086 0 4V12C0 14.2091 1.79086 16 4 16H12C14.2091 16 16 14.2091 16 12V4C16 1.79086 14.2091 0 12 0H4ZM13.0303 5.53033C13.3232 5.23744 13.3232 4.76256 13.0303 4.46967C12.7374 4.17678 12.2626 4.17678 11.9697 4.46967L6.5504 9.88894L4.57617 7.51986C4.31099 7.20165 3.83807 7.15866 3.51986 7.42383C3.20165 7.68901 3.15866 8.16193 3.42383 8.48014L5.92383 11.4801C6.05873 11.642 6.25551 11.7397 6.46601 11.7492C6.67652 11.7588 6.88133 11.6793 7.03033 11.5303L13.0303 5.53033Z" fill="#3876F6"/>
</svg>