<svg width="32" height="32" viewBox="0 0 32 32" fill="none" xmlns="http://www.w3.org/2000/svg">
<mask id="path-1-inside-1_446_16400" fill="white">
<path fill-rule="evenodd" clip-rule="evenodd" d="M12 8C9.79086 8 8 9.79086 8 12V20C8 22.2091 9.79086 24 12 24H20C22.2091 24 24 22.2091 24 20V12C24 9.79086 22.2091 8 20 8H12ZM21.0303 13.5303C21.3232 13.2374 21.3232 12.7626 21.0303 12.4697C20.7374 12.1768 20.2626 12.1768 19.9697 12.4697L14.5504 17.8889L12.5762 15.5199C12.311 15.2017 11.8381 15.1587 11.5199 15.4238C11.2017 15.689 11.1587 16.1619 11.4238 16.4801L13.9238 19.4801C14.0587 19.642 14.2555 19.7397 14.466 19.7492C14.6765 19.7588 14.8813 19.6793 15.0303 19.5303L21.0303 13.5303Z"/>
</mask>
<path fill-rule="evenodd" clip-rule="evenodd" d="M12 8C9.79086 8 8 9.79086 8 12V20C8 22.2091 9.79086 24 12 24H20C22.2091 24 24 22.2091 24 20V12C24 9.79086 22.2091 8 20 8H12ZM21.0303 13.5303C21.3232 13.2374 21.3232 12.7626 21.0303 12.4697C20.7374 12.1768 20.2626 12.1768 19.9697 12.4697L14.5504 17.8889L12.5762 15.5199C12.311 15.2017 11.8381 15.1587 11.5199 15.4238C11.2017 15.689 11.1587 16.1619 11.4238 16.4801L13.9238 19.4801C14.0587 19.642 14.2555 19.7397 14.466 19.7492C14.6765 19.7588 14.8813 19.6793 15.0303 19.5303L21.0303 13.5303Z" fill="#3876F6"/>
<path d="M21.0303 12.4697L19.6161 13.8839L19.6161 13.8839L21.0303 12.4697ZM21.0303 13.5303L19.6161 12.1161H19.6161L21.0303 13.5303ZM19.9697 12.4697L18.5555 11.0555L18.5555 11.0555L19.9697 12.4697ZM14.5504 17.8889L13.014 19.1693L14.416 20.8518L15.9646 19.3032L14.5504 17.8889ZM12.5762 15.5199L14.1126 14.2395L14.1126 14.2395L12.5762 15.5199ZM11.4238 16.4801L9.88739 17.7605L9.88739 17.7605L11.4238 16.4801ZM13.9238 19.4801L12.3874 20.7605L12.3874 20.7605L13.9238 19.4801ZM14.466 19.7492L14.3754 21.7472H14.3754L14.466 19.7492ZM15.0303 19.5303L16.4445 20.9445L16.4445 20.9445L15.0303 19.5303ZM10 12C10 10.8954 10.8954 10 12 10V6C8.68629 6 6 8.68629 6 12H10ZM10 20V12H6V20H10ZM12 22C10.8954 22 10 21.1046 10 20H6C6 23.3137 8.68629 26 12 26V22ZM20 22H12V26H20V22ZM22 20C22 21.1046 21.1046 22 20 22V26C23.3137 26 26 23.3137 26 20H22ZM22 12V20H26V12H22ZM20 10C21.1046 10 22 10.8954 22 12H26C26 8.68629 23.3137 6 20 6V10ZM12 10H20V6H12V10ZM19.6161 13.8839C19.128 13.3957 19.128 12.6043 19.6161 12.1161L22.4445 14.9445C23.5185 13.8706 23.5185 12.1294 22.4445 11.0555L19.6161 13.8839ZM21.3839 13.8839C20.8957 14.372 20.1043 14.372 19.6161 13.8839L22.4445 11.0555C21.3706 9.98151 19.6294 9.98152 18.5555 11.0555L21.3839 13.8839ZM15.9646 19.3032L21.3839 13.8839L18.5555 11.0555L13.1362 16.4747L15.9646 19.3032ZM11.0397 16.8002L13.014 19.1693L16.0868 16.6086L14.1126 14.2395L11.0397 16.8002ZM12.8002 16.9603C12.2699 17.4022 11.4817 17.3306 11.0397 16.8002L14.1126 14.2395C13.1403 13.0727 11.4063 12.9151 10.2395 13.8874L12.8002 16.9603ZM12.9603 15.1998C13.4022 15.7301 13.3306 16.5183 12.8002 16.9603L10.2395 13.8874C9.07273 14.8597 8.91509 16.5937 9.88739 17.7605L12.9603 15.1998ZM15.4603 18.1998L12.9603 15.1998L9.88739 17.7605L12.3874 20.7605L15.4603 18.1998ZM14.5566 17.7513C14.9075 17.7672 15.2354 17.93 15.4603 18.1998L12.3874 20.7605C12.882 21.3541 13.6035 21.7122 14.3754 21.7472L14.5566 17.7513ZM13.6161 18.1161C13.8645 17.8678 14.2058 17.7354 14.5566 17.7513L14.3754 21.7472C15.1472 21.7822 15.8982 21.4909 16.4445 20.9445L13.6161 18.1161ZM19.6161 12.1161L13.6161 18.1161L16.4445 20.9445L22.4445 14.9445L19.6161 12.1161Z" fill="#3876F6" mask="url(#path-1-inside-1_446_16400)"/>
</svg>
