<svg width="25" height="25" viewBox="0 0 25 25" fill="none" xmlns="http://www.w3.org/2000/svg">
<path d="M6.5 15.9551L8.5 17.9551L13 13.4551M8.5 8.95508V6.15508C8.5 5.03497 8.5 4.47492 8.71799 4.0471C8.90973 3.67077 9.21569 3.36481 9.59202 3.17307C10.0198 2.95508 10.5799 2.95508 11.7 2.95508H19.3C20.4201 2.95508 20.9802 2.95508 21.408 3.17307C21.7843 3.36481 22.0903 3.67077 22.282 4.0471C22.5 4.47492 22.5 5.03497 22.5 6.15508V13.7551C22.5 14.8752 22.5 15.4352 22.282 15.8631C22.0903 16.2394 21.7843 16.5453 21.408 16.7371C20.9802 16.9551 20.4201 16.9551 19.3 16.9551H16.5M5.7 22.9551H13.3C14.4201 22.9551 14.9802 22.9551 15.408 22.7371C15.7843 22.5453 16.0903 22.2394 16.282 21.8631C16.5 21.4352 16.5 20.8752 16.5 19.7551V12.1551C16.5 11.035 16.5 10.4749 16.282 10.0471C16.0903 9.67077 15.7843 9.36481 15.408 9.17307C14.9802 8.95508 14.4201 8.95508 13.3 8.95508H5.7C4.5799 8.95508 4.01984 8.95508 3.59202 9.17307C3.21569 9.36481 2.90973 9.67077 2.71799 10.0471C2.5 10.4749 2.5 11.035 2.5 12.1551V19.7551C2.5 20.8752 2.5 21.4352 2.71799 21.8631C2.90973 22.2394 3.21569 22.5453 3.59202 22.7371C4.01984 22.9551 4.57989 22.9551 5.7 22.9551Z" stroke="currentColor" stroke-width="2" stroke-linecap="round" stroke-linejoin="round"/>
</svg>
