<svg width="26" height="27" viewBox="0 0 26 27" fill="none" xmlns="http://www.w3.org/2000/svg">
<rect y="0.0351562" width="26" height="26" rx="6.5" fill="#C2D5FF"/>
<path d="M19.2992 11.1664H6.69922M15.7992 5.56641V8.36641M10.1992 5.56641V8.36641M10.0592 19.5664H15.9392C17.1153 19.5664 17.7034 19.5664 18.1526 19.3375C18.5477 19.1362 18.869 18.8149 19.0703 18.4198C19.2992 17.9706 19.2992 17.3825 19.2992 16.2064V10.3264C19.2992 9.1503 19.2992 8.56224 19.0703 8.11303C18.869 7.71789 18.5477 7.39663 18.1526 7.19529C17.7034 6.96641 17.1153 6.96641 15.9392 6.96641H10.0592C8.88311 6.96641 8.29505 6.96641 7.84584 7.19529C7.4507 7.39663 7.12944 7.71789 6.92811 8.11303C6.69922 8.56224 6.69922 9.1503 6.69922 10.3264V16.2064C6.69922 17.3825 6.69922 17.9706 6.92811 18.4198C7.12944 18.8149 7.4507 19.1362 7.84584 19.3375C8.29505 19.5664 8.88311 19.5664 10.0592 19.5664Z" stroke="white" stroke-width="1.63" stroke-linecap="round" stroke-linejoin="round"/>
</svg>
