<svg width="14" height="14" viewBox="0 0 14 14" fill="none" xmlns="http://www.w3.org/2000/svg">
<g id="file-05">
<path id="Icon" d="M8.16634 1.32324V3.73272C8.16634 4.05942 8.16634 4.22277 8.22992 4.34755C8.28585 4.45731 8.37509 4.54655 8.48485 4.60248C8.60963 4.66606 8.77298 4.66606 9.09968 4.66606H11.5092M8.16634 9.91602H4.66634M9.33301 7.58268H4.66634M11.6663 5.82581V10.0327C11.6663 11.0128 11.6663 11.5028 11.4756 11.8772C11.3078 12.2064 11.0401 12.4742 10.7108 12.6419C10.3365 12.8327 9.84643 12.8327 8.86634 12.8327H5.13301C4.15292 12.8327 3.66287 12.8327 3.28852 12.6419C2.95924 12.4742 2.69152 12.2064 2.52375 11.8772C2.33301 11.5028 2.33301 11.0128 2.33301 10.0327V3.96602C2.33301 2.98592 2.33301 2.49588 2.52375 2.12153C2.69152 1.79225 2.95924 1.52453 3.28852 1.35675C3.66287 1.16602 4.15292 1.16602 5.13301 1.16602H7.00654C7.43458 1.16602 7.64859 1.16602 7.85 1.21437C8.02856 1.25724 8.19926 1.32795 8.35584 1.4239C8.53244 1.53212 8.68378 1.68345 8.98644 1.98612L10.8462 3.84591C11.1489 4.14858 11.3002 4.29991 11.4085 4.47652C11.5044 4.63309 11.5751 4.8038 11.618 4.98236C11.6663 5.18376 11.6663 5.39778 11.6663 5.82581Z" stroke="#3876F6" stroke-width="1.16667" stroke-linecap="round" stroke-linejoin="round"/>
</g>
</svg>
