<svg width="26" height="27" viewBox="0 0 26 27" fill="none" xmlns="http://www.w3.org/2000/svg">
<rect y="0.0351562" width="26" height="26" rx="6.5" fill="#C2D5FF"/>
<path d="M5.6875 9.78516L15.4375 9.78516M15.4375 9.78516C15.4375 11.1314 16.5288 12.2227 17.875 12.2227C19.2212 12.2227 20.3125 11.1314 20.3125 9.78516C20.3125 8.43896 19.2212 7.34766 17.875 7.34766C16.5288 7.34766 15.4375 8.43896 15.4375 9.78516ZM10.5625 16.2852L20.3125 16.2852M10.5625 16.2852C10.5625 17.6314 9.47119 18.7227 8.125 18.7227C6.77881 18.7227 5.6875 17.6314 5.6875 16.2852C5.6875 14.939 6.77881 13.8477 8.125 13.8477C9.47119 13.8477 10.5625 14.939 10.5625 16.2852Z" stroke="white" stroke-width="1.625" stroke-linecap="round" stroke-linejoin="round"/>
</svg>
