<svg width="14" height="15" viewBox="0 0 14 15" fill="none" xmlns="http://www.w3.org/2000/svg">
<path d="M12.9623 8.13025C12.7663 9.97218 11.7233 11.6982 9.99735 12.6953C7.12984 14.3518 3.46317 13.3688 1.80761 10.4996L1.63128 10.194M1.03736 6.86975C1.2333 5.02782 2.27633 3.30176 4.00227 2.3047C6.86977 0.648157 10.5364 1.63122 12.192 4.50043L12.3683 4.80603M1 11.7811L1.51634 9.85295L3.44333 10.3696M10.5567 4.63041L12.4837 5.14706L13 3.21892" stroke="white" stroke-width="1.3" stroke-linecap="round" stroke-linejoin="round"/>
<path d="M12.9623 8.13025C12.7663 9.97218 11.7233 11.6982 9.99735 12.6953C7.12984 14.3518 3.46317 13.3688 1.80761 10.4996L1.63128 10.194M1.03736 6.86975C1.2333 5.02782 2.27633 3.30176 4.00227 2.3047C6.86977 0.648157 10.5364 1.63122 12.192 4.50043L12.3683 4.80603M1 11.7811L1.51634 9.85295L3.44333 10.3696M10.5567 4.63041L12.4837 5.14706L13 3.21892" stroke="white" stroke-width="1.3" stroke-linecap="round" stroke-linejoin="round"/>
<path d="M12.9623 8.13025C12.7663 9.97218 11.7233 11.6982 9.99735 12.6953C7.12984 14.3518 3.46317 13.3688 1.80761 10.4996L1.63128 10.194M1.03736 6.86975C1.2333 5.02782 2.27633 3.30176 4.00227 2.3047C6.86977 0.648157 10.5364 1.63122 12.192 4.50043L12.3683 4.80603M1 11.7811L1.51634 9.85295L3.44333 10.3696M10.5567 4.63041L12.4837 5.14706L13 3.21892" stroke="white" stroke-width="1.3" stroke-linecap="round" stroke-linejoin="round"/>
</svg>
