<svg width="20" height="4" viewBox="0 0 20 4" fill="none" xmlns="http://www.w3.org/2000/svg">
<path d="M10.0003 3.16732C10.6447 3.16732 11.167 2.64498 11.167 2.00065C11.167 1.35632 10.6447 0.833984 10.0003 0.833984C9.35599 0.833984 8.83366 1.35632 8.83366 2.00065C8.83366 2.64498 9.35599 3.16732 10.0003 3.16732Z" fill="#3876F6"/>
<path d="M18.167 3.16732C18.8113 3.16732 19.3337 2.64498 19.3337 2.00065C19.3337 1.35632 18.8113 0.833984 18.167 0.833984C17.5227 0.833984 17.0003 1.35632 17.0003 2.00065C17.0003 2.64498 17.5227 3.16732 18.167 3.16732Z" fill="#3876F6"/>
<path d="M1.83366 3.16732C2.47799 3.16732 3.00033 2.64498 3.00033 2.00065C3.00033 1.35632 2.47799 0.833984 1.83366 0.833984C1.18933 0.833984 0.666992 1.35632 0.666992 2.00065C0.666992 2.64498 1.18933 3.16732 1.83366 3.16732Z" fill="#3876F6"/>
<path d="M10.0003 3.16732C10.6447 3.16732 11.167 2.64498 11.167 2.00065C11.167 1.35632 10.6447 0.833984 10.0003 0.833984C9.35599 0.833984 8.83366 1.35632 8.83366 2.00065C8.83366 2.64498 9.35599 3.16732 10.0003 3.16732Z" stroke="#3876F6" stroke-width="1.33333" stroke-linecap="round" stroke-linejoin="round"/>
<path d="M18.167 3.16732C18.8113 3.16732 19.3337 2.64498 19.3337 2.00065C19.3337 1.35632 18.8113 0.833984 18.167 0.833984C17.5227 0.833984 17.0003 1.35632 17.0003 2.00065C17.0003 2.64498 17.5227 3.16732 18.167 3.16732Z" stroke="#3876F6" stroke-width="1.33333" stroke-linecap="round" stroke-linejoin="round"/>
<path d="M1.83366 3.16732C2.47799 3.16732 3.00033 2.64498 3.00033 2.00065C3.00033 1.35632 2.47799 0.833984 1.83366 0.833984C1.18933 0.833984 0.666992 1.35632 0.666992 2.00065C0.666992 2.64498 1.18933 3.16732 1.83366 3.16732Z" stroke="#3876F6" stroke-width="1.33333" stroke-linecap="round" stroke-linejoin="round"/>
</svg>
