<svg width="16" height="16" viewBox="0 0 16 16" fill="none" xmlns="http://www.w3.org/2000/svg">
<path d="M14.9549 7.36523V8.00515C14.9541 9.50506 14.4684 10.9645 13.5703 12.1658C12.6722 13.3672 11.4099 14.246 9.97149 14.6713C8.53313 15.0966 6.99583 15.0455 5.58887 14.5257" stroke="#2962FF" stroke-width="1.39111" stroke-linecap="round" stroke-linejoin="round"/>
<path d="M5.58904 14.525C4.18208 14.0052 2.98083 13.0445 2.16446 11.7863C1.34809 10.528 0.960333 9.0395 1.05902 7.54284C1.15771 6.04617 1.73756 4.62151 2.71209 3.48132C3.68661 2.34112 5.0036 1.54649 6.46664 1.21594C7.92967 0.885385 9.46037 1.03662 10.8304 1.64708" stroke="#2962FF" stroke-width="1.39111" stroke-linecap="round" stroke-linejoin="round" stroke-dasharray="6 6"/>
<path d="M14.9553 2.4375L11.4775 5.91876L7.99976 9.40002L5.91309 7.31335" stroke="#2962FF" stroke-width="1.39111" stroke-linecap="round" stroke-linejoin="round"/>
</svg>
