<svg width="16" height="4" viewBox="0 0 16 4" fill="none" xmlns="http://www.w3.org/2000/svg">
<path d="M7.57812 2.85742C8.06137 2.85742 8.45312 2.46567 8.45312 1.98242C8.45312 1.49917 8.06137 1.10742 7.57812 1.10742C7.09488 1.10742 6.70312 1.49917 6.70312 1.98242C6.70312 2.46567 7.09488 2.85742 7.57812 2.85742Z" fill="#3876F6"/>
<path d="M13.7031 2.85742C14.1864 2.85742 14.5781 2.46567 14.5781 1.98242C14.5781 1.49917 14.1864 1.10742 13.7031 1.10742C13.2199 1.10742 12.8281 1.49917 12.8281 1.98242C12.8281 2.46567 13.2199 2.85742 13.7031 2.85742Z" fill="#3876F6"/>
<path d="M1.45312 2.85742C1.93637 2.85742 2.32812 2.46567 2.32812 1.98242C2.32812 1.49917 1.93637 1.10742 1.45312 1.10742C0.969876 1.10742 0.578125 1.49917 0.578125 1.98242C0.578125 2.46567 0.969876 2.85742 1.45312 2.85742Z" fill="#3876F6"/>
<path d="M7.57812 2.85742C8.06137 2.85742 8.45312 2.46567 8.45312 1.98242C8.45312 1.49917 8.06137 1.10742 7.57812 1.10742C7.09488 1.10742 6.70312 1.49917 6.70312 1.98242C6.70312 2.46567 7.09488 2.85742 7.57812 2.85742Z" stroke="#3876F6" stroke-linecap="round" stroke-linejoin="round"/>
<path d="M13.7031 2.85742C14.1864 2.85742 14.5781 2.46567 14.5781 1.98242C14.5781 1.49917 14.1864 1.10742 13.7031 1.10742C13.2199 1.10742 12.8281 1.49917 12.8281 1.98242C12.8281 2.46567 13.2199 2.85742 13.7031 2.85742Z" stroke="#3876F6" stroke-linecap="round" stroke-linejoin="round"/>
<path d="M1.45312 2.85742C1.93637 2.85742 2.32812 2.46567 2.32812 1.98242C2.32812 1.49917 1.93637 1.10742 1.45312 1.10742C0.969876 1.10742 0.578125 1.49917 0.578125 1.98242C0.578125 2.46567 0.969876 2.85742 1.45312 2.85742Z" stroke="#3876F6" stroke-linecap="round" stroke-linejoin="round"/>
</svg>
