<svg width="24" height="24" viewBox="0 0 24 24" fill="none" xmlns="http://www.w3.org/2000/svg">
<path d="M12 12.875C12.4832 12.875 12.875 12.4832 12.875 12C12.875 11.5168 12.4832 11.125 12 11.125C11.5168 11.125 11.125 11.5168 11.125 12C11.125 12.4832 11.5168 12.875 12 12.875Z" fill="#3876F6"/>
<path d="M18.125 12.875C18.6082 12.875 19 12.4832 19 12C19 11.5168 18.6082 11.125 18.125 11.125C17.6418 11.125 17.25 11.5168 17.25 12C17.25 12.4832 17.6418 12.875 18.125 12.875Z" fill="#3876F6"/>
<path d="M5.875 12.875C6.35825 12.875 6.75 12.4832 6.75 12C6.75 11.5168 6.35825 11.125 5.875 11.125C5.39175 11.125 5 11.5168 5 12C5 12.4832 5.39175 12.875 5.875 12.875Z" fill="#3876F6"/>
<path d="M12 12.875C12.4832 12.875 12.875 12.4832 12.875 12C12.875 11.5168 12.4832 11.125 12 11.125C11.5168 11.125 11.125 11.5168 11.125 12C11.125 12.4832 11.5168 12.875 12 12.875Z" stroke="#3876F6" stroke-linecap="round" stroke-linejoin="round"/>
<path d="M18.125 12.875C18.6082 12.875 19 12.4832 19 12C19 11.5168 18.6082 11.125 18.125 11.125C17.6418 11.125 17.25 11.5168 17.25 12C17.25 12.4832 17.6418 12.875 18.125 12.875Z" stroke="#3876F6" stroke-linecap="round" stroke-linejoin="round"/>
<path d="M5.875 12.875C6.35825 12.875 6.75 12.4832 6.75 12C6.75 11.5168 6.35825 11.125 5.875 11.125C5.39175 11.125 5 11.5168 5 12C5 12.4832 5.39175 12.875 5.875 12.875Z" stroke="#3876F6" stroke-linecap="round" stroke-linejoin="round"/>
</svg>
