<svg width="16" height="16" viewBox="0 0 16 16" fill="none" xmlns="http://www.w3.org/2000/svg">
<path fill-rule="evenodd" clip-rule="evenodd" d="M14.9553 6.66797C15.3395 6.66797 15.6509 6.97938 15.6509 7.36353V8.00344C15.65 9.65334 15.1157 11.2591 14.1278 12.5806C13.1399 13.9021 11.7513 14.8688 10.1691 15.3366C8.58694 15.8044 6.89591 15.7482 5.34825 15.1764C4.98791 15.0433 4.80372 14.6433 4.93685 14.2829C5.06997 13.9226 5.47001 13.7384 5.83035 13.8715C7.09662 14.3394 8.48018 14.3853 9.77471 14.0026C11.0692 13.6198 12.2054 12.8289 13.0136 11.7477C13.8219 10.6665 14.259 9.35296 14.2598 8.00304V7.36353C14.2598 6.97938 14.5712 6.66797 14.9553 6.66797Z" fill="#212121"/>
<path fill-rule="evenodd" clip-rule="evenodd" d="M8.26397 1.01391C8.28772 1.39732 7.99616 1.72739 7.61274 1.75113C7.28024 1.77173 6.94832 1.81894 6.62017 1.89308C6.29202 1.96722 5.97205 2.0673 5.66298 2.19166C5.30661 2.33506 4.90146 2.1624 4.75806 1.80602C4.61466 1.44965 4.78732 1.0445 5.14369 0.901102C5.52146 0.749095 5.91255 0.626778 6.31359 0.536167C6.71464 0.445557 7.12032 0.387854 7.52675 0.362682C7.91016 0.338935 8.24023 0.630499 8.26397 1.01391ZM9.10761 1.09726C9.20592 0.72591 9.58667 0.504574 9.95802 0.602891C10.3517 0.707111 10.7382 0.843087 11.1138 1.01043C11.4647 1.16677 11.6224 1.57797 11.466 1.92886C11.3097 2.27975 10.8985 2.43746 10.5476 2.28111C10.2403 2.14418 9.92403 2.03294 9.60198 1.94767C9.23063 1.84935 9.00929 1.46861 9.10761 1.09726ZM4.03221 2.24398C4.28063 2.53699 4.24448 2.97591 3.95147 3.22433C3.69736 3.43977 3.45965 3.67618 3.24107 3.93192C3.02249 4.18766 2.82598 4.45928 2.65274 4.74384C2.45298 5.07196 2.02505 5.17602 1.69693 4.97626C1.36881 4.77649 1.26475 4.34856 1.46451 4.02044C1.67627 3.67262 1.91645 3.34063 2.18359 3.02808C2.45072 2.71554 2.74126 2.42658 3.05186 2.16325C3.34487 1.91482 3.78379 1.95097 4.03221 2.24398ZM1.37735 5.76145C1.75171 5.8476 1.98535 6.22092 1.89919 6.59528C1.82448 6.91994 1.77545 7.25159 1.75332 7.58729C1.73118 7.92298 1.73624 8.2582 1.76767 8.58986C1.80392 8.97229 1.52329 9.3117 1.14085 9.34795C0.758424 9.3842 0.419016 9.10356 0.382767 8.72113C0.344342 8.31574 0.338165 7.90602 0.365217 7.49576C0.39227 7.0855 0.452193 6.68013 0.543517 6.2833C0.629669 5.90894 1.00299 5.6753 1.37735 5.76145ZM1.35456 10.1683C1.70607 10.0134 2.11664 10.1727 2.27159 10.5242C2.40596 10.8291 2.5651 11.1241 2.74821 11.4064C2.93132 11.6886 3.13593 11.9542 3.35955 12.2011C3.6174 12.4859 3.5956 12.9257 3.31086 13.1836C3.02611 13.4414 2.58625 13.4196 2.3284 13.1349C2.05506 12.833 1.80498 12.5084 1.5812 12.1635C1.35742 11.8186 1.1629 11.4579 0.998656 11.0853C0.843709 10.7338 1.00305 10.3233 1.35456 10.1683ZM3.97291 13.713C4.16187 13.3786 4.58618 13.2606 4.92064 13.4496C5.2107 13.6134 5.51476 13.7547 5.83033 13.8713C6.19067 14.0044 6.37486 14.4044 6.24174 14.7648C6.10861 15.1251 5.70858 15.3093 5.34824 15.1762C4.96256 15.0337 4.59092 14.8611 4.23638 14.6608C3.90192 14.4718 3.78396 14.0475 3.97291 13.713Z" fill="#212121"/>
<path fill-rule="evenodd" clip-rule="evenodd" d="M15.4472 1.94371C15.7189 2.21521 15.7191 2.65561 15.4476 2.92738L8.49208 9.8899C8.36166 10.0204 8.18471 10.0938 8.00017 10.0939C7.81564 10.0939 7.63865 10.0206 7.50817 9.89014L5.4215 7.80348C5.14987 7.53184 5.14987 7.09144 5.4215 6.81981C5.69313 6.54818 6.13353 6.54818 6.40516 6.81981L7.99975 8.4144L14.4635 1.9442C14.735 1.67244 15.1754 1.67222 15.4472 1.94371Z" fill="#212121"/>
</svg>
